<svg xmlns="http://www.w3.org/2000/svg" viewBox="0 0 710 149"
     role="img" aria-label="RESOLVE">
  <title>RESOLVE</title>
  <path fill="#ffffff" fill-rule="evenodd" clip-rule="evenodd"
        d="M2.5 0 L112.5 0.25 L117.25 3.5 L146.5 33.25 L146.5 66.25 L116.5 98.25 L116.25 99.5 L161.5 145.75 L162 147.5 L160 149 L95 148.5 L57.5 110.75 L55.5 107.25 L54.5 107.25 L51.5 110.25 L17 148.5 L2.75 148.5 L2 146 L2.5 89 L42.5 46.75 L42.5 45.75 L2.25 5.25 L0 2.5 L0 1 Z M52.25 56.75 L18.25 93.75 L17 94.25 L17 126.75 L67.75 72.25 L67.75 71 L53.25 56.75 Z M32.5 14 L32.5 15.25 L36.75 19.75 L87.25 70.75 L88.5 71 L106.25 52 L106.25 49.5 L70.75 14 Z M88.25 92.25 L74.5 106.5 L74.5 108.25 L82 114.75 L100.5 134 L103 134.5 L129.75 134.25 L129.75 133.5 L91 94 Z M199.75 35.25 L236.25 35.25 L244.5 36 L253.5 39.5 L258.5 44.25 L260.75 48.5 L262.25 54.5 L262 64.25 L260.75 69 L258.25 73.75 L254.5 77.5 L246.5 81.25 L246.25 83 L264.75 109.75 L265 111.75 L263.75 112.75 L249.75 112.25 L231 83.75 L229.75 83 L212.75 83 L211.75 111.75 L209.25 112.75 L199.25 112.5 L197.75 111.5 L197.5 37.5 Z M213 47.5 L212.25 48.25 L212.75 70.75 L237 71 L243.25 69.5 L245.5 67.75 L247.25 64.75 L247.5 54.25 L245 50.25 L242 48.25 L238 47.5 Z M279.5 35.25 L335 35.75 L335.5 46.5 L334.25 47.5 L292.25 48 L292.5 67 L328.5 67 L330.5 68.5 L330.5 77.5 L328.75 79.25 L292.5 79.5 L292.25 99.5 L293 100.25 L334.25 99.75 L336 102 L336 109.75 L334.75 112.5 L332.5 112.75 L279.75 112.75 L277.5 111.25 L277.25 37.25 Z M378.25 33.75 L394 34.5 L406.25 36.75 L407.75 37.75 L407.5 48 L406.5 48.75 L403 48.75 L388.5 46.75 L373.5 46.75 L367.5 48 L364.75 49.5 L362.75 52 L362.25 60 L363 63 L364.75 65 L370.5 66.75 L394.75 68.75 L402.25 70.75 L408.5 75 L410.5 78.25 L412.25 85.25 L411.75 98.25 L410.25 102.25 L407.75 105.75 L403.5 109.5 L398.75 111.75 L394.25 113.25 L384.25 114.5 L362.75 113.75 L350.75 111.25 L348.5 109.5 L348.5 101.25 L350 98.75 L368.75 101.5 L383 101.75 L393.75 99.75 L397.75 95.75 L398.5 93 L398.25 86 L394.5 81.75 L360.75 77.75 L353.5 74.25 L349.75 70 L348.5 66.5 L347.5 59.75 L347.75 52.75 L349 47.75 L351.5 43.25 L357.75 38 L362.75 36 Z M458 33.5 L476.25 34.75 L482.5 36.5 L487.75 39.25 L492.5 43 L496 48 L499.5 59.5 L500.25 68 L499.5 88.5 L498.5 93.5 L495.25 101.5 L490.25 107 L486.25 109.75 L478.75 112.75 L467.5 114.5 L451 114 L442.75 112 L437.25 109.5 L432.75 106.25 L428.75 101.5 L426.5 96.75 L424.5 89 L423.75 81.25 L424 62.25 L425.5 54.25 L429 46.25 L434.5 40.25 L439.25 37.5 L450.75 34 Z M457.5 38.25 L450.25 39 L442.75 41 L435.75 45.75 L432 51.25 L429.75 58 L428.75 65.75 L429.5 88 L432.25 97.25 L434.5 101 L439.25 105.25 L450.75 109 L466.25 109.75 L476.25 108.5 L482.25 106.5 L487 103.25 L490.25 99.75 L493.25 93.25 L494.5 86 L494.5 61.5 L493 54 L490.75 49 L485.25 43.25 L482.25 41.5 L474.25 39 Z M458 41.5 L471.5 42 L476.25 43 L482.75 46 L486.5 50 L488.5 53.75 L490.5 61.75 L490.5 85.75 L489 93.25 L487.25 97.25 L483 101.75 L479.25 103.75 L474.25 105.5 L466 106.5 L450.75 105.75 L442.5 103 L438.5 99.75 L436.5 96.75 L433.5 86.5 L433 66.75 L433.75 59.75 L436.25 52 L439 48 L443 45 L451 42.25 Z M458 46 L450.5 47 L446.5 48.5 L443 50.75 L440.25 54.25 L438.5 60 L437.75 67.75 L438.5 87.25 L440 93.25 L442.5 96.75 L445.75 99 L455.5 101.5 L467.75 101.5 L474.5 100.5 L478.5 98.75 L482.5 95.25 L483.75 93 L485.5 85.75 L486 77.5 L485.25 60 L482.25 52.5 L478.75 49.25 L474.25 47 Z M515.75 35.5 L528.25 35.5 L529.25 36.25 L529.5 99.75 L570 100 L570.5 100.75 L570.5 111.5 L569.5 112.5 L522.75 112.75 L516.75 112.75 L514.75 111.5 L514.75 36 Z M521 40.25 L520.25 41 L520.25 107 L522.5 108 L565.25 107.75 L565.75 105.5 L565.25 104.75 L524.25 104.5 L524 40.75 Z M565 35.25 L574.5 35.25 L576.75 36.5 L602.75 97.5 L603.75 97.25 L609.25 85.5 L629 37.75 L630.25 36 L632.75 35.25 L641.75 35.25 L643.25 36.75 L643.5 38.75 L612.25 109 L610 112.25 L607.5 112.75 L597.25 112.75 L593.75 109.75 L566.25 46.25 L562.75 39.75 L562.5 36 Z M655.25 35.25 L708.25 35.25 L709.5 36 L709.75 45.75 L708 47.5 L667.25 48 L667.25 66.75 L703.5 67 L704.75 68 L704.75 78 L703.75 79.25 L667.5 79.5 L667.25 99.5 L708.75 100 L710 102 L710 110.5 L707.75 112.75 L655.25 112.75 L653 111.25 L652.5 38.25 L653.25 36.5 Z"/>
</svg>
