<svg xmlns="http://www.w3.org/2000/svg" viewBox="0 0 162 149"
     role="img" aria-label="RESOLVE mark">
  <title>RESOLVE mark</title>
  <path fill="#ffffff" fill-rule="evenodd" clip-rule="evenodd"
        d="M2.5 0 L112.5 0.25 L117.25 3.5 L146.5 33.25 L146.5 66.25 L116.5 98.25 L116.25 99.5 L161.5 145.75 L162 147.5 L160 149 L95 148.5 L57.5 110.75 L55.5 107.25 L54.5 107.25 L51.5 110.25 L17 148.5 L2.75 148.5 L2 146 L2.5 89 L42.5 46.75 L42.5 45.75 L2.25 5.25 L0 2.5 L0 1 Z M52.25 56.75 L18.25 93.75 L17 94.25 L17 126.75 L67.75 72.25 L67.75 71 L53.25 56.75 Z M32.5 14 L32.5 15.25 L36.75 19.75 L87.25 70.75 L88.5 71 L106.25 52 L106.25 49.5 L70.75 14 Z M88.25 92.25 L74.5 106.5 L74.5 108.25 L82 114.75 L100.5 134 L103 134.5 L129.75 134.25 L129.75 133.5 L91 94 Z"/>
</svg>
